<?xml version="1.0" encoding="UTF-8"?><svg id="Layer_2" xmlns="http://www.w3.org/2000/svg" viewBox="0 0 1080 1920"><defs><style>.cls-1{font-size:24px;}.cls-1,.cls-2{font-family:Helvetica, Helvetica;}.cls-3{letter-spacing:-.02em;}.cls-4{letter-spacing:-.02em;}.cls-5{letter-spacing:0em;}.cls-2{font-size:11px;}.cls-6{stroke:#ec008c;}.cls-6,.cls-7,.cls-8,.cls-9{fill:none;stroke-miterlimit:10;}.cls-7{stroke:#f7941d;}.cls-8{stroke:#2bb673;}.cls-9{stroke:#27aae1;}.cls-10{font-family:Helvetica-Bold, Helvetica;font-size:175px;font-weight:700;}.cls-11{fill:#2bb673;}.cls-11,.cls-12,.cls-13,.cls-14{stroke-width:0px;}.cls-12{fill:#27aae1;}.cls-13{fill:#ec008c;}.cls-14{fill:#f7941d;}</style></defs><rect width="100%" height="100%" fill="#FFFFFF" /><ns0:g style="mix-blend-mode:overlay" opacity="0.26"><path class="cls-9" d="M51.5,1139.5h-6,6Z"/><path class="cls-9" d="M51.5,1139.5h-6,6Z"/><path class="cls-9" d="M48.5,1259v-4.5,9-4.5Z"/><path class="cls-9" d="M48.5,1259v-4.5,9-4.5Z"/><path class="cls-9" d="M48.5,1259v-4.5,9-4.5Z"/><path class="cls-9" d="M48.5,1251.5v-12,24-12Z"/><path class="cls-9" d="M48.5,1251.5v-12,24-12Z"/><ellipse class="cls-9" cx="51.5" cy="1239.5" rx="3" ry="24"/><ellipse class="cls-9" cx="54.5" cy="1231" rx="6" ry="32.5"/><ellipse class="cls-9" cx="59" cy="1225" rx="10.5" ry="38.5"/><ellipse class="cls-9" cx="63.5" cy="1219" rx="15" ry="44.5"/><ellipse class="cls-9" cx="69.5" cy="1210" rx="21" ry="53.5"/><ellipse class="cls-9" cx="78" cy="1202.5" rx="29.5" ry="61"/><ellipse class="cls-9" cx="87" cy="1195.5" rx="38.5" ry="68"/><ellipse class="cls-9" cx="96" cy="1188" rx="47.5" ry="75.5"/><ellipse class="cls-9" cx="105" cy="1182" rx="56.5" ry="81.5"/><ellipse class="cls-9" cx="115" cy="1176" rx="66.5" ry="87.5"/><ellipse class="cls-9" cx="125.5" cy="1171.5" rx="77" ry="92"/><ellipse class="cls-9" cx="137.5" cy="1167" rx="89" ry="96.5"/><ellipse class="cls-9" cx="148" cy="1163" rx="99.5" ry="100.5"/><ellipse class="cls-9" cx="159.5" cy="1160" rx="111" ry="103.5"/><ellipse class="cls-9" cx="171.5" cy="1157" rx="123" ry="106.5"/><ellipse class="cls-9" cx="180.5" cy="1154" rx="132" ry="109.5"/><ellipse class="cls-9" cx="189" cy="1154" rx="140.5" ry="109.5"/><ellipse class="cls-9" cx="196.5" cy="1154" rx="148" ry="109.5"/><ellipse class="cls-9" cx="204" cy="1154" rx="155.5" ry="109.5"/><ellipse class="cls-9" cx="208.5" cy="1154" rx="160" ry="109.5"/><ellipse class="cls-9" cx="213" cy="1154" rx="164.5" ry="109.5"/><ellipse class="cls-9" cx="217.5" cy="1155.5" rx="169" ry="108"/><ellipse class="cls-9" cx="223" cy="1158.5" rx="174.5" ry="105"/><ellipse class="cls-9" cx="227.5" cy="1163" rx="179" ry="100.5"/><ellipse class="cls-9" cx="232" cy="1167" rx="183.5" ry="96.5"/><ellipse class="cls-9" cx="236.5" cy="1171.5" rx="188" ry="92"/><ellipse class="cls-9" cx="241" cy="1176" rx="192.5" ry="87.5"/><ellipse class="cls-9" cx="244" cy="1180.5" rx="195.5" ry="83"/><ellipse class="cls-9" cx="247" cy="1188" rx="198.5" ry="75.5"/><ellipse class="cls-9" cx="250" cy="1195.5" rx="201.5" ry="68"/><ellipse class="cls-9" cx="254" cy="1202.5" rx="205.5" ry="61"/><ellipse class="cls-9" cx="255.5" cy="1210" rx="207" ry="53.5"/><ellipse class="cls-9" cx="258.5" cy="1217.5" rx="210" ry="46"/><ellipse class="cls-9" cx="260" cy="1228" rx="211.5" ry="35.5"/><ellipse class="cls-9" cx="258.5" cy="1240.5" rx="210" ry="23"/><ellipse class="cls-9" cx="260" cy="1245.5" rx="211.5" ry="18"/><ellipse class="cls-9" cx="260" cy="1254.5" rx="211.5" ry="9"/><ellipse class="cls-9" cx="260" cy="1268" rx="211.5" ry="4.5"/><ellipse class="cls-9" cx="258.5" cy="1279.5" rx="210" ry="16"/><ellipse class="cls-9" cx="255.5" cy="1293" rx="207" ry="29.5"/><ellipse class="cls-9" cx="251.5" cy="1306.5" rx="203" ry="43"/><ellipse class="cls-9" cx="248.5" cy="1319.5" rx="200" ry="56"/><ellipse class="cls-9" cx="245.5" cy="1331.5" rx="197" ry="68"/><ellipse class="cls-9" cx="242.5" cy="1343" rx="194" ry="79.5"/><ellipse class="cls-9" cx="239.5" cy="1355" rx="191" ry="91.5"/><ellipse class="cls-9" cx="236.5" cy="1370" rx="188" ry="106.5"/><ellipse class="cls-9" cx="233.5" cy="1384.5" rx="185" ry="121"/><ellipse class="cls-9" cx="230.5" cy="1401" rx="182" ry="137.5"/><ellipse class="cls-9" cx="227.5" cy="1418.5" rx="179" ry="155"/><ellipse class="cls-9" cx="226" cy="1435" rx="177.5" ry="171.5"/><ellipse class="cls-9" cx="223" cy="1449.5" rx="174.5" ry="186"/><ellipse class="cls-9" cx="221.5" cy="1464.5" rx="173" ry="201"/><ellipse class="cls-9" cx="220" cy="1479.5" rx="171.5" ry="216"/><ellipse class="cls-9" cx="218.5" cy="1495.5" rx="170" ry="232"/><ellipse class="cls-9" cx="217.5" cy="1513.5" rx="169" ry="250"/><ellipse class="cls-9" cx="217.5" cy="1528" rx="169" ry="264.5"/><ellipse class="cls-9" cx="217.5" cy="1540" rx="169" ry="276.5"/><ellipse class="cls-9" cx="217.5" cy="1549" rx="169" ry="285.5"/><ellipse class="cls-9" cx="217.5" cy="1556" rx="169" ry="292.5"/><ellipse class="cls-9" cx="217.5" cy="1560.5" rx="169" ry="297"/><ellipse class="cls-9" cx="217.5" cy="1562" rx="169" ry="298.5"/><ellipse class="cls-9" cx="217.5" cy="1565" rx="169" ry="301.5"/><ellipse class="cls-9" cx="217.5" cy="1565" rx="169" ry="301.5"/><ellipse class="cls-9" cx="217.5" cy="1565" rx="169" ry="301.5"/><ellipse class="cls-9" cx="217.5" cy="1566.5" rx="169" ry="303"/><ellipse class="cls-9" cx="217.5" cy="1566.5" rx="169" ry="303"/><ellipse class="cls-9" cx="218.5" cy="1566.5" rx="170" ry="303"/><ellipse class="cls-9" cx="218.5" cy="1566.5" rx="170" ry="303"/><ellipse class="cls-9" cx="220" cy="1566.5" rx="171.5" ry="303"/><ellipse class="cls-9" cx="224.5" cy="1566.5" rx="176" ry="303"/><ellipse class="cls-9" cx="232" cy="1566.5" rx="183.5" ry="303"/><ellipse class="cls-9" cx="242.5" cy="1566.5" rx="194" ry="303"/><ellipse class="cls-9" cx="257" cy="1566.5" rx="208.5" ry="303"/><ellipse class="cls-9" cx="273.5" cy="1565" rx="225" ry="301.5"/><ellipse class="cls-9" cx="292.5" cy="1560.5" rx="244" ry="297"/><ellipse class="cls-9" cx="313.5" cy="1554.5" rx="265" ry="291"/><ellipse class="cls-9" cx="335.5" cy="1549" rx="287" ry="285.5"/><ellipse class="cls-9" cx="358" cy="1543" rx="309.5" ry="279.5"/><ellipse class="cls-9" cx="378.5" cy="1535.5" rx="330" ry="272"/><ellipse class="cls-9" cx="397.5" cy="1529.5" rx="349" ry="266"/><ellipse class="cls-9" cx="418.5" cy="1522" rx="370" ry="258.5"/><ellipse class="cls-9" cx="437.5" cy="1513.5" rx="389" ry="250"/><ellipse class="cls-9" cx="457" cy="1504.5" rx="408.5" ry="241"/><ellipse class="cls-9" cx="474.5" cy="1497" rx="426" ry="233.5"/><ellipse class="cls-9" cx="486.5" cy="1492.5" rx="438" ry="229"/><ellipse class="cls-9" cx="495.5" cy="1488" rx="447" ry="224.5"/><ellipse class="cls-9" cx="502.5" cy="1485" rx="454" ry="221.5"/><ellipse class="cls-9" cx="507" cy="1483.5" rx="458.5" ry="220"/><ellipse class="cls-9" cx="508.5" cy="1483.5" rx="460" ry="220"/><ellipse class="cls-9" cx="510" cy="1483.5" rx="461.5" ry="220"/><ellipse class="cls-9" cx="511.5" cy="1483.5" rx="463" ry="220"/><ellipse class="cls-9" cx="511.5" cy="1483.5" rx="463" ry="220"/><ellipse class="cls-9" cx="511.5" cy="1483.5" rx="463" ry="220"/><ellipse class="cls-9" cx="511.5" cy="1483.5" rx="463" ry="220"/><path class="cls-8" d="M1021.4,1537.05h6-6Z"/><path class="cls-8" d="M1021.4,1537.05h6-6Z"/><path class="cls-8" d="M1024.4,1417.55v4.5-9,4.5Z"/><path class="cls-8" d="M1024.4,1417.55v4.5-9,4.5Z"/><path class="cls-8" d="M1024.4,1417.55v4.5-9,4.5Z"/><path class="cls-8" d="M1024.4,1425.05v12-24,12Z"/><path class="cls-8" d="M1024.4,1425.05v12-24,12Z"/><ellipse class="cls-8" cx="1021.4" cy="1437.05" rx="3" ry="24"/><ellipse class="cls-8" cx="1018.4" cy="1445.55" rx="6" ry="32.5"/><ellipse class="cls-8" cx="1013.9" cy="1451.55" rx="10.5" ry="38.5"/><ellipse class="cls-8" cx="1009.4" cy="1457.55" rx="15" ry="44.5"/><ellipse class="cls-8" cx="1003.4" cy="1466.55" rx="21" ry="53.5"/><ellipse class="cls-8" cx="994.9" cy="1474.05" rx="29.5" ry="61"/><ellipse class="cls-8" cx="985.9" cy="1481.05" rx="38.5" ry="68"/><ellipse class="cls-8" cx="976.9" cy="1488.55" rx="47.5" ry="75.5"/><ellipse class="cls-8" cx="967.9" cy="1494.55" rx="56.5" ry="81.5"/><ellipse class="cls-8" cx="957.9" cy="1500.55" rx="66.5" ry="87.5"/><ellipse class="cls-8" cx="947.4" cy="1505.05" rx="77" ry="92"/><ellipse class="cls-8" cx="935.4" cy="1509.55" rx="89" ry="96.5"/><ellipse class="cls-8" cx="924.9" cy="1513.55" rx="99.5" ry="100.5"/><ellipse class="cls-8" cx="913.4" cy="1516.55" rx="111" ry="103.5"/><ellipse class="cls-8" cx="901.4" cy="1519.55" rx="123" ry="106.5"/><ellipse class="cls-8" cx="892.4" cy="1522.55" rx="132" ry="109.5"/><ellipse class="cls-8" cx="883.9" cy="1522.55" rx="140.5" ry="109.5"/><ellipse class="cls-8" cx="876.4" cy="1522.55" rx="148" ry="109.5"/><ellipse class="cls-8" cx="868.9" cy="1522.55" rx="155.5" ry="109.5"/><ellipse class="cls-8" cx="864.4" cy="1522.55" rx="160" ry="109.5"/><ellipse class="cls-8" cx="859.9" cy="1522.55" rx="164.5" ry="109.5"/><ellipse class="cls-8" cx="855.4" cy="1521.05" rx="169" ry="108"/><ellipse class="cls-8" cx="849.9" cy="1518.05" rx="174.5" ry="105"/><ellipse class="cls-8" cx="845.4" cy="1513.55" rx="179" ry="100.5"/><ellipse class="cls-8" cx="840.9" cy="1509.55" rx="183.5" ry="96.5"/><ellipse class="cls-8" cx="836.4" cy="1505.05" rx="188" ry="92"/><ellipse class="cls-8" cx="831.9" cy="1500.55" rx="192.5" ry="87.5"/><ellipse class="cls-8" cx="828.9" cy="1496.05" rx="195.5" ry="83"/><ellipse class="cls-8" cx="825.9" cy="1488.55" rx="198.5" ry="75.5"/><ellipse class="cls-8" cx="822.9" cy="1481.05" rx="201.5" ry="68"/><ellipse class="cls-8" cx="818.9" cy="1474.05" rx="205.5" ry="61"/><ellipse class="cls-8" cx="817.4" cy="1466.55" rx="207" ry="53.5"/><ellipse class="cls-8" cx="814.4" cy="1459.05" rx="210" ry="46"/><ellipse class="cls-8" cx="812.9" cy="1448.55" rx="211.5" ry="35.5"/><ellipse class="cls-8" cx="814.4" cy="1436.05" rx="210" ry="23"/><ellipse class="cls-8" cx="812.9" cy="1431.05" rx="211.5" ry="18"/><ellipse class="cls-8" cx="812.9" cy="1422.05" rx="211.5" ry="9"/><ellipse class="cls-8" cx="812.9" cy="1408.55" rx="211.5" ry="4.5"/><ellipse class="cls-8" cx="814.4" cy="1397.05" rx="210" ry="16"/><ellipse class="cls-8" cx="817.4" cy="1383.55" rx="207" ry="29.5"/><ellipse class="cls-8" cx="821.4" cy="1370.05" rx="203" ry="43"/><ellipse class="cls-8" cx="824.4" cy="1357.05" rx="200" ry="56"/><ellipse class="cls-8" cx="827.4" cy="1345.05" rx="197" ry="68"/><ellipse class="cls-8" cx="830.4" cy="1333.55" rx="194" ry="79.5"/><ellipse class="cls-8" cx="833.4" cy="1321.55" rx="191" ry="91.5"/><ellipse class="cls-8" cx="836.4" cy="1306.55" rx="188" ry="106.5"/><ellipse class="cls-8" cx="839.4" cy="1292.05" rx="185" ry="121"/><ellipse class="cls-8" cx="842.4" cy="1275.55" rx="182" ry="137.5"/><ellipse class="cls-8" cx="845.4" cy="1258.05" rx="179" ry="155"/><ellipse class="cls-8" cx="846.9" cy="1241.55" rx="177.5" ry="171.5"/><ellipse class="cls-8" cx="849.9" cy="1227.05" rx="174.5" ry="186"/><ellipse class="cls-8" cx="851.4" cy="1212.05" rx="173" ry="201"/><ellipse class="cls-8" cx="852.9" cy="1197.05" rx="171.5" ry="216"/><ellipse class="cls-8" cx="854.4" cy="1181.05" rx="170" ry="232"/><ellipse class="cls-8" cx="855.4" cy="1163.05" rx="169" ry="250"/><ellipse class="cls-8" cx="855.4" cy="1148.55" rx="169" ry="264.5"/><ellipse class="cls-8" cx="855.4" cy="1136.55" rx="169" ry="276.5"/><ellipse class="cls-8" cx="855.4" cy="1127.55" rx="169" ry="285.5"/><ellipse class="cls-8" cx="855.4" cy="1120.55" rx="169" ry="292.5"/><ellipse class="cls-8" cx="855.4" cy="1116.05" rx="169" ry="297"/><ellipse class="cls-8" cx="855.4" cy="1114.55" rx="169" ry="298.5"/><ellipse class="cls-8" cx="855.4" cy="1111.55" rx="169" ry="301.5"/><ellipse class="cls-8" cx="855.4" cy="1111.55" rx="169" ry="301.5"/><ellipse class="cls-8" cx="855.4" cy="1111.55" rx="169" ry="301.5"/><ellipse class="cls-8" cx="855.4" cy="1110.05" rx="169" ry="303"/><ellipse class="cls-8" cx="855.4" cy="1110.05" rx="169" ry="303"/><ellipse class="cls-8" cx="854.4" cy="1110.05" rx="170" ry="303"/><ellipse class="cls-8" cx="854.4" cy="1110.05" rx="170" ry="303"/><ellipse class="cls-8" cx="852.9" cy="1110.05" rx="171.5" ry="303"/><ellipse class="cls-8" cx="848.4" cy="1110.05" rx="176" ry="303"/><ellipse class="cls-8" cx="840.9" cy="1110.05" rx="183.5" ry="303"/><ellipse class="cls-8" cx="830.4" cy="1110.05" rx="194" ry="303"/><ellipse class="cls-8" cx="815.9" cy="1110.05" rx="208.5" ry="303"/><ellipse class="cls-8" cx="799.4" cy="1111.55" rx="225" ry="301.5"/><ellipse class="cls-8" cx="780.4" cy="1116.05" rx="244" ry="297"/><ellipse class="cls-8" cx="759.4" cy="1122.05" rx="265" ry="291"/><ellipse class="cls-8" cx="737.4" cy="1127.55" rx="287" ry="285.5"/><ellipse class="cls-8" cx="714.9" cy="1133.55" rx="309.5" ry="279.5"/><ellipse class="cls-8" cx="694.4" cy="1141.05" rx="330" ry="272"/><ellipse class="cls-8" cx="675.4" cy="1147.05" rx="349" ry="266"/><ellipse class="cls-8" cx="654.4" cy="1154.55" rx="370" ry="258.5"/><ellipse class="cls-8" cx="635.4" cy="1163.05" rx="389" ry="250"/><ellipse class="cls-8" cx="615.9" cy="1172.05" rx="408.5" ry="241"/><ellipse class="cls-8" cx="598.4" cy="1179.55" rx="426" ry="233.5"/><ellipse class="cls-8" cx="586.4" cy="1184.05" rx="438" ry="229"/><ellipse class="cls-8" cx="577.4" cy="1188.55" rx="447" ry="224.5"/><ellipse class="cls-8" cx="570.4" cy="1191.55" rx="454" ry="221.5"/><ellipse class="cls-8" cx="565.9" cy="1193.05" rx="458.5" ry="220"/><ellipse class="cls-8" cx="564.4" cy="1193.05" rx="460" ry="220"/><ellipse class="cls-8" cx="562.9" cy="1193.05" rx="461.5" ry="220"/><ellipse class="cls-8" cx="561.4" cy="1193.05" rx="463" ry="220"/><ellipse class="cls-8" cx="561.4" cy="1193.05" rx="463" ry="220"/><ellipse class="cls-8" cx="561.4" cy="1193.05" rx="463" ry="220"/><ellipse class="cls-8" cx="561.4" cy="1193.05" rx="463" ry="220"/><path class="cls-8" d="M146.5,817.5v-3,6-3Z"/><ellipse class="cls-7" cx="49" cy="1252.5" rx="1.5" ry="11"/><ellipse class="cls-7" cx="55.5" cy="1238.5" rx="8" ry="25"/><ellipse class="cls-7" cx="68" cy="1221" rx="20.5" ry="42.5"/><ellipse class="cls-7" cx="68" cy="1221" rx="20.5" ry="42.5"/><ellipse class="cls-7" cx="80.5" cy="1205" rx="33" ry="58.5"/><ellipse class="cls-7" cx="93.5" cy="1192.5" rx="46" ry="71"/><ellipse class="cls-7" cx="109" cy="1178" rx="61.5" ry="85.5"/><ellipse class="cls-7" cx="125" cy="1165.5" rx="77.5" ry="98"/><ellipse class="cls-7" cx="144" cy="1148" rx="96.5" ry="115.5"/><ellipse class="cls-7" cx="167.5" cy="1130.5" rx="120" ry="133"/><ellipse class="cls-7" cx="191.5" cy="1113.5" rx="144" ry="150"/><circle class="cls-7" cx="213.5" cy="1097.5" r="166"/><ellipse class="cls-7" cx="237.5" cy="1081.5" rx="190" ry="182"/><ellipse class="cls-7" cx="259.5" cy="1064.5" rx="212" ry="199"/><ellipse class="cls-7" cx="280" cy="1050" rx="232.5" ry="213.5"/><ellipse class="cls-7" cx="297.5" cy="1037.5" rx="250" ry="226"/><ellipse class="cls-7" cx="315" cy="1024.5" rx="267.5" ry="239"/><ellipse class="cls-7" cx="334" cy="1012" rx="286.5" ry="251.5"/><ellipse class="cls-7" cx="356" cy="999.5" rx="308.5" ry="264"/><ellipse class="cls-7" cx="376.5" cy="988.5" rx="329" ry="275"/><ellipse class="cls-7" cx="391" cy="980.5" rx="343.5" ry="283"/><ellipse class="cls-7" cx="402" cy="974" rx="354.5" ry="289.5"/><ellipse class="cls-7" cx="411.5" cy="969.5" rx="364" ry="294"/><ellipse class="cls-7" cx="417.5" cy="964.5" rx="370" ry="299"/><ellipse class="cls-7" cx="425.5" cy="960" rx="378" ry="303.5"/><ellipse class="cls-7" cx="432" cy="955" rx="384.5" ry="308.5"/><ellipse class="cls-7" cx="436.5" cy="952" rx="389" ry="311.5"/><ellipse class="cls-7" cx="443" cy="947" rx="395.5" ry="316.5"/><ellipse class="cls-7" cx="448" cy="944" rx="400.5" ry="319.5"/><ellipse class="cls-6" cx="1023" cy="1838.5" rx="1.5" ry="11"/><ellipse class="cls-6" cx="1016.5" cy="1824.5" rx="8" ry="25"/><ellipse class="cls-6" cx="1004" cy="1807" rx="20.5" ry="42.5"/><ellipse class="cls-6" cx="1004" cy="1807" rx="20.5" ry="42.5"/><ellipse class="cls-6" cx="991.5" cy="1791" rx="33" ry="58.5"/><ellipse class="cls-6" cx="978.5" cy="1778.5" rx="46" ry="71"/><ellipse class="cls-6" cx="963" cy="1764" rx="61.5" ry="85.5"/><ellipse class="cls-6" cx="947" cy="1751.5" rx="77.5" ry="98"/><ellipse class="cls-6" cx="928" cy="1734" rx="96.5" ry="115.5"/><ellipse class="cls-6" cx="904.5" cy="1716.5" rx="120" ry="133"/><ellipse class="cls-6" cx="880.5" cy="1699.5" rx="144" ry="150"/><circle class="cls-6" cx="858.5" cy="1683.5" r="166"/><ellipse class="cls-6" cx="834.5" cy="1667.5" rx="190" ry="182"/><ellipse class="cls-6" cx="812.5" cy="1650.5" rx="212" ry="199"/><ellipse class="cls-6" cx="792" cy="1636" rx="232.5" ry="213.5"/><ellipse class="cls-6" cx="774.5" cy="1623.5" rx="250" ry="226"/><ellipse class="cls-6" cx="757" cy="1610.5" rx="267.5" ry="239"/><ellipse class="cls-6" cx="738" cy="1598" rx="286.5" ry="251.5"/><ellipse class="cls-6" cx="716" cy="1585.5" rx="308.5" ry="264"/><ellipse class="cls-6" cx="695.5" cy="1574.5" rx="329" ry="275"/><ellipse class="cls-6" cx="681" cy="1566.5" rx="343.5" ry="283"/><ellipse class="cls-6" cx="670" cy="1560" rx="354.5" ry="289.5"/><ellipse class="cls-6" cx="660.5" cy="1555.5" rx="364" ry="294"/><ellipse class="cls-6" cx="654.5" cy="1550.5" rx="370" ry="299"/><ellipse class="cls-6" cx="646.5" cy="1546" rx="378" ry="303.5"/><ellipse class="cls-6" cx="640" cy="1541" rx="384.5" ry="308.5"/><ellipse class="cls-6" cx="635.5" cy="1538" rx="389" ry="311.5"/><ellipse class="cls-6" cx="629" cy="1533" rx="395.5" ry="316.5"/><ellipse class="cls-6" cx="624" cy="1530" rx="400.5" ry="319.5"/><rect class="cls-13" x="105.5" y="515" width="144" height="44.84"/><rect class="cls-12" x="346.33" y="515.16" width="144" height="44.84"/><rect class="cls-14" x="587.17" y="515.16" width="144" height="44.84"/><rect class="cls-11" x="828" y="515.16" width="144" height="44.84"/><rect class="cls-13" x="105.5" y="492" width="144" height="11.96"/><rect class="cls-12" x="346.33" y="492.04" width="144" height="11.96"/><rect class="cls-14" x="587.17" y="492.04" width="144" height="11.96"/><rect class="cls-11" x="828" y="492.04" width="144" height="11.96"/><text class="cls-10" transform="translate(92.44 219.41)"><tspan x="0" y="0">FRED</tspan></text><text class="cls-10" transform="translate(92.44 399.41)"><tspan x="0" y="0">TROLLER</tspan></text><text class="cls-1" transform="translate(701.08 138.24)"><tspan x="0" y="0">CA</tspan><tspan class="cls-4" x="33.34" y="0">RY</tspan><tspan x="65.84" y="0" xml:space="preserve"> COLLECTION</tspan></text><text class="cls-1" transform="translate(701.08 174.65)"><tspan x="0" y="0">EXPRESSIVE LINE</tspan></text><text class="cls-1" transform="translate(701.08 211.07)"><tspan x="0" y="0">DISCOVER DESIGN</tspan></text><text class="cls-2" transform="translate(701.08 108.07)"><tspan x="0" y="0">ROCHESTER INSTITUTE OF</tspan><tspan class="cls-3" x="147.28" y="0"> </tspan><tspan class="cls-5" x="150.14" y="0">TECHNOLOG</tspan><tspan class="cls-4" x="219.82" y="0">Y</tspan></text></svg>