<svg width="1080" height="729" viewBox="0 0 1080 729" fill="none" xmlns="http://www.w3.org/2000/svg">
<path d="M-26.5889 358.347C87.4017 282.567 98.3073 218.905 59.0601 81.8614C183.327 134.64 244.714 115.144 342.417 9.8222C443.294 73.3631 495.985 136.786 579.457 30.2771C632.985 122.436 805.949 -3.40086 828.185 0.576892C850.422 4.55464 941.426 175.584 1078.09 78.0239C1035.18 127.216 1021.65 209.746 1085.98 304.434C1034.43 341.105 1033.42 414.993 1072.15 481.34C961.126 501.237 931.233 543.694 905.131 648.203C808.523 569.174 661.647 665.776 575.611 728.929C508.215 656.364 384.379 693.956 295.464 725.363C222.081 636.296 168.294 618.364 66.4178 649.322C116.746 497.351 92.2228 435.342 -26.5889 358.347Z" fill="#F9E24C" style="fill:#F9E24C;fill:color(display-p3 0.9765 0.8863 0.2980);fill-opacity:1;"/>
</svg>
