<svg width="1080" height="226" viewBox="0 0 1080 226" fill="none" xmlns="http://www.w3.org/2000/svg">
<g filter="url(#filter0_d_173_1721)">
<rect x="-111.727" y="24.0078" width="1315.45" height="89.99" transform="rotate(3.99828 -111.727 24.0078)" fill="#F9E24C" style="fill:#F9E24C;fill:color(display-p3 0.9765 0.8863 0.2980);fill-opacity:1;"/>
<rect x="-116.83" y="18.1377" width="1326.45" height="100.99" transform="rotate(3.99828 -116.83 18.1377)" stroke="black" style="stroke:black;stroke-opacity:1;" stroke-width="11"/>
</g>
<path d="M108.149 93.5995C106.77 94.4907 105.344 95.1152 103.87 95.4731C102.432 95.8005 101.015 95.8167 99.6206 95.5216C98.2257 95.2266 97.056 94.5359 96.1115 93.4494C94.9905 96.3008 94.1666 99.14 93.6398 101.967C93.4722 102.482 93.2096 102.941 92.8523 103.344C92.1413 105.039 90.7661 106.111 88.7266 106.561C86.7222 106.981 84.8946 106.754 83.2438 105.882C82.4828 105.467 81.8643 104.897 81.3882 104.172C80.9122 103.448 80.7085 102.594 80.7772 101.611C83.5847 93.9399 86.2119 87.6716 88.6588 82.8061C89.1907 81.7899 89.6106 80.9634 89.9184 80.3265C90.259 79.692 90.56 79.1534 90.8214 78.7108C91.0828 78.2682 91.3068 77.8889 91.4935 77.5727C91.7152 77.2261 91.972 76.8491 92.2638 76.4415C92.9222 75.5 93.6738 74.4004 94.5189 73.1427C95.3989 71.8546 96.1239 70.9012 96.6939 70.2827C97.2966 69.6665 97.9087 69.1496 98.5305 68.7322C99.1872 68.2844 99.8908 67.8727 100.641 67.4972C101.424 67.124 102.397 66.6324 103.559 66.0223C104.721 65.4122 105.929 65.0852 107.183 65.0412C108.472 64.9667 109.677 65.1497 110.798 65.5901C113.17 66.513 114.837 68.3249 115.8 71.0257C116.614 73.5185 116.55 76.7894 115.608 80.8383C114.155 87.0242 111.669 91.2779 108.149 93.5995ZM98.1851 88.5085C100.912 88.1066 102.902 86.4845 104.154 83.6423C105.21 81.2473 105.585 78.4754 105.279 75.3267C104.436 76.5516 103.655 77.8303 102.937 79.1626C102.251 80.4972 101.624 81.6879 101.058 82.7346C99.8071 85.0831 98.8496 87.0078 98.1851 88.5085ZM128.892 107.986C128.19 108.135 127.528 108.187 126.906 108.144C126.281 108.133 125.64 108.121 124.982 108.108C124.358 108.097 123.488 108.053 122.375 107.975C121.261 107.897 119.592 107.748 117.369 107.527C116.843 107.523 116.318 107.502 115.794 107.466C115.269 107.429 114.785 107.296 114.34 107.068C113.354 106.571 112.735 105.54 112.482 103.975C112.369 103.243 112.224 102.723 112.048 102.414C111.84 102.104 111.679 101.812 111.566 101.541C111.275 100.994 111.369 100.128 111.847 98.9438C112.292 97.757 112.871 96.2997 113.584 94.5719C114.3 92.8114 115.104 90.9584 115.997 89.0128C118.098 84.3865 119.95 80.7303 121.553 78.0444C122.197 76.8385 122.748 75.7906 123.205 74.9009C123.695 74.0134 124.127 73.2536 124.5 72.6213C124.876 71.9563 125.065 71.6074 125.067 71.5746C125.482 70.3527 126.816 69.3926 129.07 68.6943C131.261 67.9586 133.21 67.8644 134.917 68.4116C136.815 69.0381 137.577 70.3752 137.204 72.4229C136.603 74.4219 135.773 76.4048 134.714 78.3717C133.688 80.3409 132.523 82.3992 131.221 84.5466C129.919 86.6941 128.509 88.9657 126.992 91.3614C125.475 93.7572 123.96 96.367 122.445 99.1909C122.403 99.3196 122.461 99.4389 122.618 99.5486C123.046 99.5456 123.645 99.4558 124.414 99.2791C125.217 99.1048 126.033 98.9643 126.863 98.8578C127.729 98.7207 128.571 98.6809 129.39 98.7381C130.209 98.7953 130.882 99.0564 131.409 99.5211C131.335 100.108 131.449 100.594 131.752 100.977C132.056 101.328 132.361 101.678 132.666 102.028C133.425 102.937 133.412 104.072 132.625 105.433C131.874 106.763 130.629 107.614 128.892 107.986ZM164.445 74.6232C165.517 75.2907 166.161 76.2081 166.375 77.3752C165.464 80.9983 164.619 84.6097 163.841 88.2092C163.065 91.776 162.345 94.7706 161.682 97.1931C161.021 99.5829 160.55 101.377 160.269 102.575C160.02 103.776 159.739 104.974 159.425 106.17L159.058 107.181C158.967 107.537 158.879 107.86 158.793 108.151C158.704 108.474 158.615 108.813 158.524 109.169C157.534 110.153 156.252 110.59 154.68 110.48C153.009 110.363 151.712 109.845 150.789 108.924C150.231 108.424 150.201 107.451 150.697 106.005C150.902 105.426 151.053 104.68 151.15 103.765C151.282 102.819 151.402 102.038 151.511 101.42L151.518 101.322C150.51 101.613 149.592 102.027 148.765 102.561C147.94 103.063 147.423 103.389 147.215 103.539C147.009 103.656 146.739 103.753 146.405 103.828C146.073 103.871 145.775 103.899 145.51 103.914C144.885 103.903 144.453 103.972 144.212 104.119C142.074 107.393 140.238 109.174 138.703 109.462C137.733 109.691 136.778 109.69 135.84 109.459C134.899 109.262 134.184 108.652 133.696 107.631C132.716 106.575 133.166 103.907 135.046 99.6272C136.06 97.3609 137.466 94.6611 139.266 91.528C141.1 88.3644 142.839 85.622 144.482 83.3009C148.024 78.3145 151.819 74.1687 155.869 70.8637C156.51 70.6451 157.202 70.3972 157.945 70.12C158.691 69.81 159.409 69.6627 160.099 69.678C160.822 69.6957 161.554 69.8291 162.293 70.0783C163.033 70.3275 163.651 70.667 164.148 71.0967C165.296 72.0986 165.395 73.2742 164.445 74.6232ZM153.026 86.8114C152.201 88.7288 151.386 90.4988 150.581 92.1214C149.778 93.7112 149.088 95.1114 148.51 96.3218L152.402 96.4457C152.81 94.3675 153.251 92.308 153.723 90.2671C154.194 88.2262 154.65 86.1842 155.089 84.1411L153.026 86.8114ZM151.012 96.5461C151.471 96.5782 151.932 96.5775 152.395 96.544L152.398 96.4949C151.97 96.4979 151.575 96.5032 151.212 96.5107C150.85 96.5183 150.783 96.5301 151.012 96.5461ZM186.452 85.0494C186.521 84.0667 186.211 83.5512 185.523 83.5032C185.261 83.4848 184.945 83.5286 184.576 83.6345C184.206 83.7403 183.854 83.8309 183.52 83.9063C182.262 84.4767 181.261 85.131 180.519 85.8691C179.811 86.5768 179.08 87.3816 178.325 88.2835C177.571 89.1854 176.91 90.1597 176.343 91.2063C175.777 92.253 175.329 93.2422 175 94.1739C173.805 97.6126 174.001 99.9964 175.587 101.325C176.24 101.865 176.944 102.161 177.697 102.213C178.486 102.236 179.12 102.115 179.599 101.853C180.111 101.592 180.605 101.347 181.082 101.117C181.559 100.887 182.096 100.743 182.692 100.686C183.324 100.599 184.072 100.733 184.936 101.09C185.835 101.416 186.301 101.811 186.334 102.274C186.368 102.737 186.334 103.212 186.235 103.699C186.135 104.186 186.087 104.627 186.093 105.022C186.131 105.42 186.474 105.691 187.122 105.835C187.69 106.664 187.23 107.587 185.744 108.602C185.363 108.872 184.999 109.126 184.653 109.366C181.71 110.97 178.643 111.76 175.452 111.734C173.444 111.726 171.34 111.217 169.139 110.207C165.855 108.693 164.155 105.694 164.041 101.209C163.772 97.043 164.595 92.8047 166.509 88.4945C168.114 84.8539 170.386 81.5399 173.327 78.5524C175.988 75.8086 178.545 74.0781 180.998 73.3608C183.951 72.0858 187.07 71.7278 190.356 72.2866C193.829 72.9903 196.018 74.641 196.923 77.239C197.827 79.8369 197.435 82.8545 195.747 86.2916C195.168 87.5021 194.166 88.4196 192.74 89.0441C191.515 89.6168 190.214 89.8551 188.838 89.7589C187.463 89.6628 186.608 89.1751 186.274 88.2959C185.943 87.384 186.002 86.3018 186.452 85.0494ZM202.384 104.531C204.27 104.861 205.672 105.058 206.589 105.122C207.539 105.188 208.973 105.157 210.892 105.027C211.468 105.265 211.794 105.535 211.872 105.837C211.95 106.138 211.961 106.452 211.905 106.777C211.852 107.07 211.848 107.366 211.892 107.665C211.937 107.964 212.231 108.232 212.775 108.467C213.063 108.586 213.124 108.887 212.958 109.369C212.828 109.821 212.531 110.31 212.066 110.837C210.886 112.17 209.54 113.064 208.027 113.518C205.627 113.942 203.752 114.157 202.402 114.161C200.163 114.169 197.745 113.918 195.147 113.407C192.301 112.682 190.992 111.389 191.221 109.528C191.702 102.649 193.692 95.8424 197.191 89.1083C198.332 86.9167 199.612 84.6196 201.031 82.217C201.329 81.7112 201.518 81.1318 201.596 80.4789C201.708 79.8283 201.802 79.193 201.878 78.5729C201.954 77.9528 202.091 77.4027 202.289 76.9228C202.488 76.4429 202.856 76.123 203.393 75.9631C210.397 73.7204 215.859 73.0488 219.779 73.9482C221.153 74.0771 222.021 74.6151 222.382 75.5621C222.779 76.4786 222.758 77.4812 222.32 78.5698C221.915 79.6607 221.17 80.662 220.086 81.5738C219.034 82.4878 217.747 83.0068 216.224 83.1308C214.253 83.5526 213.047 83.8469 212.607 84.0137C211.761 84.3496 211.135 84.8325 210.729 85.4625C210.22 86.1511 209.746 86.8092 209.307 87.4369C208.868 88.0646 208.54 88.7495 208.324 89.4914L208.052 90.5587C208.653 90.8971 209.4 91.048 210.291 91.0115C211.218 90.9446 212.061 90.8884 212.821 90.8427C213.617 90.7667 214.24 90.7938 214.692 90.9241C215.177 91.0567 215.24 91.555 214.884 92.4188C214.562 93.2522 213.987 94.1831 213.158 95.2115C212.362 96.2421 211.275 96.9562 209.897 97.3537C209.034 97.458 208.435 97.5478 208.101 97.6232C207.802 97.6681 207.569 97.7012 207.403 97.7225C207.171 97.7392 206.513 97.7426 205.427 97.7325C203.704 100.246 202.629 102.211 202.2 103.63C202.028 104.21 202.089 104.511 202.384 104.531ZM261.424 81.4017C262.496 82.0692 263.14 82.9866 263.355 84.1537C262.443 87.7768 261.598 91.3882 260.82 94.9877C260.044 98.5545 259.324 101.549 258.661 103.972C258 106.361 257.529 108.155 257.248 109.354C256.999 110.554 256.718 111.753 256.404 112.949L256.037 113.96C255.947 114.316 255.858 114.639 255.772 114.929C255.684 115.252 255.594 115.591 255.503 115.947C254.513 116.931 253.231 117.368 251.659 117.259C249.988 117.142 248.691 116.623 247.768 115.703C247.211 115.203 247.18 114.23 247.676 112.783C247.881 112.205 248.032 111.458 248.129 110.543C248.261 109.598 248.381 108.816 248.49 108.198L248.497 108.1C247.489 108.392 246.571 108.805 245.744 109.34C244.919 109.842 244.402 110.168 244.194 110.318C243.989 110.435 243.719 110.531 243.384 110.607C243.052 110.649 242.754 110.678 242.489 110.692C241.865 110.682 241.432 110.75 241.191 110.898C239.053 114.172 237.217 115.953 235.682 116.241C234.712 116.469 233.757 116.468 232.819 116.238C231.878 116.04 231.163 115.431 230.675 114.409C229.696 113.353 230.145 110.685 232.025 106.406C233.039 104.139 234.446 101.44 236.245 98.3065C238.079 95.1429 239.818 92.4005 241.461 90.0794C245.003 85.093 248.798 80.9472 252.848 77.6422C253.489 77.4236 254.181 77.1757 254.924 76.8985C255.67 76.5885 256.388 76.4412 257.079 76.4565C257.801 76.4742 258.533 76.6076 259.273 76.8568C260.012 77.106 260.63 77.4455 261.127 77.8752C262.275 78.8772 262.374 80.0527 261.424 81.4017ZM250.005 93.5899C249.18 95.5073 248.365 97.2773 247.56 98.8999C246.758 100.49 246.067 101.89 245.489 103.1L249.381 103.224C249.79 101.146 250.23 99.0865 250.702 97.0456C251.174 95.0047 251.629 92.9627 252.068 90.9196L250.005 93.5899ZM247.991 103.325C248.45 103.357 248.911 103.356 249.374 103.323L249.378 103.273C248.949 103.276 248.554 103.282 248.191 103.289C247.829 103.297 247.762 103.309 247.991 103.325ZM298.738 92.8979C298.807 91.9151 298.497 91.3997 297.81 91.3516C297.547 91.3333 297.232 91.3771 296.862 91.4829C296.493 91.5887 296.141 91.6794 295.806 91.7547C294.548 92.3252 293.548 92.9795 292.805 93.7176C292.097 94.4252 291.366 95.23 290.612 96.1319C289.858 97.0338 289.197 98.0081 288.63 99.0548C288.063 100.101 287.615 101.091 287.287 102.022C286.092 105.461 286.287 107.845 287.873 109.174C288.527 109.713 289.231 110.009 289.984 110.062C290.772 110.084 291.406 109.964 291.886 109.701C292.398 109.44 292.892 109.195 293.369 108.965C293.846 108.735 294.383 108.592 294.979 108.535C295.611 108.447 296.358 108.582 297.222 108.938C298.121 109.264 298.587 109.659 298.621 110.122C298.654 110.586 298.621 111.061 298.521 111.547C298.421 112.034 298.374 112.475 298.379 112.871C298.417 113.268 298.761 113.539 299.409 113.683C299.976 114.513 299.517 115.435 298.03 116.451C297.649 116.72 297.286 116.975 296.94 117.214C293.997 118.819 290.93 119.608 287.738 119.583C285.731 119.574 283.627 119.065 281.426 118.055C278.141 116.542 276.442 113.543 276.327 109.058C276.059 104.891 276.882 100.653 278.796 96.3429C280.4 92.7024 282.673 89.3883 285.614 86.4008C288.274 83.6571 290.831 81.9265 293.284 81.2092C296.237 79.9343 299.357 79.5762 302.643 80.1351C306.116 80.8387 308.304 82.4895 309.209 85.0874C310.114 87.6854 309.722 90.7029 308.033 94.1401C307.455 95.3505 306.453 96.268 305.026 96.8925C303.801 97.4653 302.501 97.7036 301.125 97.6074C299.749 97.5112 298.894 97.0235 298.561 96.1444C298.23 95.2324 298.289 94.1502 298.738 92.8979ZM315.382 85.9632C317.61 83.7489 320.006 82.4351 322.57 82.0217C324.336 81.7172 325.969 81.8972 327.47 82.5617C328.771 81.3689 330.376 81.0202 332.283 81.5156C334.029 81.9668 335.466 83.0713 336.594 84.8289C336.644 85.0628 336.751 85.416 336.915 85.8883C337.113 86.363 337.29 86.8856 337.448 87.4562C338.655 90.8983 338.463 95.2959 336.871 100.649C334.893 107.292 331.823 112.822 327.663 117.238C326.383 118.597 324.973 119.7 323.432 120.547C320.948 122.184 318.074 122.79 314.812 122.364C312.788 122.124 311.12 121.497 309.808 120.484C304.528 117.382 303.139 111.59 305.641 103.108C307.708 96.1418 310.955 90.427 315.382 85.9632ZM314.147 112.096L314.078 112.388L314.138 112.935C314.264 113.964 314.536 114.774 314.956 115.362C315.378 115.919 315.732 116.273 316.018 116.424C316.363 116.185 316.708 115.962 317.052 115.756C317.395 115.549 317.71 115.292 317.995 114.982C320.415 112.386 322.403 108.904 323.959 104.536C325.515 100.168 326.262 96.0726 326.2 92.2497C324.808 93.7983 323.333 95.588 321.776 97.6189C320.218 99.6497 318.978 101.39 318.053 102.84C315.941 106.214 314.639 109.3 314.147 112.096ZM356.334 85.468C356.6 86.3754 356.739 86.9776 356.751 87.2747C356.773 87.9017 356.507 88.4098 355.953 88.799C355.951 88.8318 355.914 88.8787 355.844 88.9396C356.032 90.4998 355.996 91.9458 355.739 93.2774C355.481 94.6091 355.178 95.8881 354.829 97.1146C356.808 94.2245 358.371 92.1118 359.518 90.7764C361.884 88.0121 364.044 86.0727 365.998 84.9584C366.646 84.6416 367.417 84.4322 368.313 84.3302C369.244 84.1978 370.115 84.2257 370.924 84.414C371.734 84.6023 372.383 84.9768 372.87 85.5376C373.391 86.1006 373.581 86.904 373.443 87.9477C372.079 94.2714 370.679 100.165 369.244 105.628C367.811 111.058 366.084 116.22 364.063 121.116L364.056 121.214L364.007 121.21C363.532 122.362 362.491 123.129 360.884 123.51C359.312 123.861 357.934 123.798 356.75 123.32C355.305 122.791 354.689 121.958 354.9 120.821L355.028 119.694L355.035 119.596C355.221 118.819 355.323 118.299 355.341 118.037C355.395 117.745 355.442 117.534 355.484 117.405C355.609 116.558 355.795 115.781 356.042 115.074C356.324 114.337 356.53 113.742 356.661 113.29C356.791 112.839 356.919 112.42 357.045 112.033C357.173 111.614 357.261 111.291 357.31 111.064C355.946 112.681 354.989 113.651 354.44 113.975C353.066 114.8 351.513 115.12 349.781 114.933C348.705 114.792 348.099 114.502 347.965 114.065C347.702 113.125 347.51 112.568 347.391 112.396C347.212 112.12 347.08 111.666 346.992 111.034C345.877 114.742 344.855 117.354 343.926 118.869C343.555 119.468 343.189 120.002 342.827 120.471C342.293 121.52 341.192 122.2 339.524 122.511C337.955 122.829 336.483 122.694 335.108 122.104C333.699 121.544 333.068 120.677 333.216 119.503C333.364 118.328 333.713 116.871 334.263 115.132C334.782 113.358 335.389 111.491 336.086 109.532C338.199 103.326 339.665 99.2972 340.486 97.4453C341.339 95.5957 342.05 94.1476 342.617 93.1009C343.972 90.6609 345.149 88.8997 346.146 87.8173C347.306 85.8245 349.08 84.6976 351.468 84.4366C353.361 84.2068 354.982 84.5506 356.334 85.468ZM391.596 90.5991C390.2 94.0896 388.91 97.2419 387.726 100.056C386.574 102.872 385.504 105.464 384.516 107.831C383.56 110.2 382.666 112.392 381.834 114.408C381.004 116.391 380.229 118.295 379.509 120.121C379.031 122.261 377.859 123.709 375.996 124.468C374.913 124.886 373.651 125.045 372.21 124.944C370.769 124.843 369.699 124.604 369.001 124.226C368.301 123.881 367.873 123.406 367.718 122.803C367.53 122.197 367.579 121.493 367.866 120.69C368.122 119.852 368.562 118.731 369.187 117.326C369.814 115.889 370.608 113.953 371.568 111.518C372.561 109.085 373.589 106.623 374.652 104.129C377.294 97.8948 379.339 93.5938 380.788 91.2262C381.344 90.3434 381.877 89.7717 382.389 89.5112C382.904 89.218 383.395 89.0218 383.863 88.9229C384.333 88.7911 384.771 88.6407 385.178 88.4717C385.585 88.3026 385.963 87.8353 386.313 87.0697C386.695 86.3064 387.306 85.8059 388.146 85.5683C389.018 85.333 389.806 85.3716 390.508 85.6841C391.245 85.966 391.766 86.5291 392.069 87.3732C392.407 88.1869 392.249 89.2622 391.596 90.5991ZM410.305 100.696C410.374 99.7132 410.064 99.1978 409.376 99.1497C409.114 99.1314 408.799 99.1752 408.429 99.281C408.06 99.3869 407.708 99.4775 407.373 99.5529C406.115 100.123 405.115 100.778 404.372 101.516C403.664 102.223 402.933 103.028 402.179 103.93C401.424 104.832 400.764 105.806 400.197 106.853C399.63 107.9 399.182 108.889 398.854 109.82C397.659 113.259 397.854 115.643 399.44 116.972C400.094 117.511 400.797 117.807 401.551 117.86C402.339 117.882 402.973 117.762 403.452 117.499C403.964 117.239 404.459 116.993 404.936 116.763C405.413 116.533 405.949 116.39 406.546 116.333C407.177 116.245 407.925 116.38 408.789 116.736C409.688 117.063 410.154 117.457 410.188 117.921C410.221 118.384 410.188 118.859 410.088 119.345C409.988 119.832 409.941 120.273 409.946 120.669C409.984 121.066 410.327 121.337 410.976 121.481C411.543 122.311 411.084 123.234 409.597 124.249C409.216 124.519 408.853 124.773 408.507 125.012C405.564 126.617 402.497 127.407 399.305 127.381C397.298 127.372 395.194 126.863 392.993 125.853C389.708 124.34 388.008 121.341 387.894 116.856C387.626 112.69 388.449 108.451 390.363 104.141C391.967 100.501 394.24 97.1865 397.181 94.199C399.841 91.4552 402.398 89.7247 404.851 89.0073C407.804 87.7324 410.924 87.3744 414.209 87.9332C417.682 88.6368 419.871 90.2876 420.776 92.8856C421.681 95.4835 421.289 98.5011 419.6 101.938C419.022 103.149 418.019 104.066 416.593 104.691C415.368 105.263 414.068 105.502 412.692 105.406C411.316 105.309 410.461 104.822 410.128 103.942C409.796 103.031 409.856 101.948 410.305 100.696ZM442.256 94.8313C444.484 92.617 446.881 91.3031 449.444 90.8898C451.21 90.5853 452.843 90.7653 454.344 91.4298C455.645 90.2369 457.25 89.8882 459.157 90.3837C460.904 90.8349 462.341 91.9393 463.469 93.697C463.518 93.9309 463.625 94.284 463.79 94.7564C463.987 95.231 464.164 95.7537 464.322 96.3243C465.53 99.7664 465.338 104.164 463.745 109.517C461.767 116.16 458.698 121.69 454.537 126.106C453.257 127.465 451.847 128.568 450.307 129.415C447.822 131.052 444.949 131.658 441.687 131.232C439.662 130.992 437.995 130.365 436.683 129.352C431.402 126.25 430.013 120.458 432.515 111.976C434.582 105.01 437.829 99.2951 442.256 94.8313ZM441.022 120.964L440.952 121.256L441.012 121.803C441.138 122.833 441.411 123.642 441.83 124.231C442.252 124.787 442.606 125.141 442.892 125.292C443.238 125.053 443.582 124.83 443.926 124.624C444.27 124.418 444.584 124.16 444.869 123.85C447.289 121.254 449.277 117.772 450.833 113.404C452.389 109.036 453.136 104.941 453.074 101.118C451.682 102.666 450.208 104.456 448.65 106.487C447.093 108.518 445.852 110.258 444.928 111.708C442.815 115.082 441.513 118.168 441.022 120.964ZM466.064 110.025C466.872 107.876 467.514 106.225 467.99 105.074C468.501 103.891 468.986 102.839 469.445 101.916C469.905 100.994 470.411 100.108 470.964 99.2574C471.55 98.4096 472.163 97.6459 472.803 96.9665C473.478 96.2565 474.175 95.7127 474.892 95.3349C475.61 94.9571 476.345 94.7946 477.099 94.8472C477.852 94.8999 478.618 95.2497 479.396 95.8966C480.477 99.264 481.126 101.515 481.343 102.649C481.622 104.315 481.821 106.649 481.94 109.653C482.287 108.92 482.67 108.157 483.088 107.363C483.54 106.539 483.976 105.714 484.396 104.887C485.563 102.796 486.316 101.203 486.656 100.107C487.537 97.8647 489.148 96.249 491.488 95.2605C493.522 94.4151 495.379 94.2321 497.057 94.7115C497.736 94.8907 498.191 95.2023 498.424 95.6465C498.689 96.0929 498.658 96.5352 498.331 96.9732C498.037 97.4135 497.907 97.8489 497.943 98.2793C498.014 98.6793 498.063 99.16 498.089 99.7214C498.082 101.235 497.726 102.56 497.021 103.696C496.319 104.799 495.579 106.196 494.803 107.886C494.029 109.544 493.23 111.315 492.407 113.199C491.617 115.086 490.808 117.005 489.98 118.955C489.153 120.905 488.354 122.676 487.584 124.268C485.88 127.935 484.555 129.933 483.61 130.262C482.313 130.928 481.365 131.306 480.766 131.396C480.003 131.474 478.939 131.4 477.572 131.173C476.725 131.048 476.064 129.899 475.591 127.726C475.311 126.554 475.094 124.943 474.941 122.891C474.664 119.316 474.44 117.342 474.269 116.968C472.661 121.135 471.54 123.756 470.905 124.831C470.303 125.908 469.842 126.616 469.522 126.956C469.235 127.298 468.874 127.75 468.44 128.312C467.931 129.462 466.855 130.259 465.211 130.704C463.798 131.132 462.548 131.127 461.459 130.688C460.275 130.211 459.967 129.432 460.536 128.353C461.171 124.447 463.014 118.338 466.064 110.025ZM525.627 120.706C524.564 123.199 523.492 125.593 522.409 127.888C521.327 130.182 520.433 131.914 519.726 133.082C519.049 134.286 518.465 135.101 517.975 135.527C517.484 135.954 516.987 136.232 516.484 136.361C516.014 136.493 515.535 136.526 515.046 136.458C514.589 136.394 514.117 136.328 513.628 136.261C510.906 135.642 510.192 133.601 511.488 130.136C512.373 127.367 513.09 125.113 513.64 123.374C514.191 121.602 514.638 120.152 514.981 119.024C515.358 117.865 515.671 116.916 515.92 116.176C516.172 115.404 516.438 114.649 516.72 113.911C517.002 113.174 517.34 112.342 517.734 111.414C518.161 110.49 518.708 109.261 519.375 107.727C518.118 107.804 517.014 107.595 516.061 107.1C514.663 106.377 514.167 104.993 514.573 102.947C514.771 102.007 515.34 101.158 516.282 100.401C516.771 100.007 517.343 99.5859 518 99.138C519.348 98.2118 521.963 97.3082 525.843 96.4273C529.856 95.5228 533.269 95.2017 536.082 95.4642C536.845 95.3858 537.607 95.5379 538.371 95.9204C539.169 96.2725 539.796 96.7277 540.25 97.2862C540.705 97.8447 540.911 98.4351 540.867 99.0575C540.857 99.6822 540.425 100.212 539.571 100.646C539.16 100.88 538.85 101.303 538.643 101.914C538.438 102.492 538.213 103.119 537.969 103.793C537.726 104.434 537.389 105.02 536.957 105.549C536.558 106.081 535.945 106.367 535.119 106.408C534.678 106.608 534.06 106.729 533.267 106.772C532.507 106.818 531.993 106.864 531.727 106.912C531.495 106.928 531.358 107.001 531.316 107.13C530.605 108.825 529.753 110.888 528.76 113.321C527.77 115.72 526.725 118.182 525.627 120.706ZM519.904 107.221C519.838 107.216 519.804 107.23 519.802 107.263C519.802 107.263 519.835 107.265 519.9 107.27L519.904 107.221ZM544.805 123.923L542.028 129.753C541.636 130.647 541.275 131.576 540.944 132.541C540.613 133.505 540.275 134.338 539.93 135.038C539.583 135.77 539.083 136.328 538.431 136.71C537.811 137.095 537.118 137.359 536.351 137.503C535.581 137.68 534.788 137.723 533.972 137.633C533.188 137.545 532.494 137.349 531.89 137.043C530.527 136.29 530.111 135.174 530.642 133.697C532.612 127.185 534.391 121.977 535.981 118.072C537.603 114.169 538.92 111.101 539.932 108.868C540.977 106.636 542.064 104.276 543.192 101.788C543.357 100.845 543.81 100.02 544.55 99.315C545.291 98.6096 546.137 98.0433 547.089 97.616C548.073 97.1911 549.08 96.9158 550.109 96.7902C551.14 96.6319 552.044 96.6621 552.818 96.8809C553.593 97.0996 554.141 97.5 554.463 98.0821C554.817 98.6665 554.793 99.4713 554.393 100.497C553.003 103.428 552.018 105.499 551.44 106.709C550.862 107.92 550.342 109.003 549.88 109.958L548.277 113.105C548.963 113.186 549.838 113.148 550.902 112.992C552.832 112.699 554.218 112.648 555.061 112.838C555.072 112.675 555.173 112.402 555.365 112.02C556.561 108.088 557.85 104.491 559.23 101.23C560.241 98.5354 562.455 97.2417 565.871 97.3488C567.214 97.4427 568.206 97.8412 568.848 98.5445C569.554 99.285 569.587 100.226 568.948 101.366C565.343 109.607 562.748 116.124 561.162 120.918C559.359 126.454 558.16 130.189 557.564 132.122C557.001 134.058 556.543 135.195 556.19 135.532C555.837 135.87 555.476 136.091 555.107 136.197C554.768 136.338 554.43 136.463 554.093 136.571C553.756 136.679 553.471 136.988 553.238 137.498L553.091 137.488C552.788 138.06 552.182 138.478 551.275 138.744C550.367 139.01 549.459 139.061 548.548 138.899C547.668 138.772 546.938 138.391 546.357 137.758C545.806 137.16 545.719 136.282 546.096 135.123C546.554 133.279 547.235 131.318 548.137 129.242C549.041 127.132 549.749 125.486 550.26 124.304C550.803 123.124 551.259 122.02 551.627 120.993C551.356 121.105 551.087 121.185 550.82 121.232C550.586 121.282 550.282 121.392 549.908 121.564C549.536 121.702 549.149 121.823 548.747 121.927C548.377 122.033 548.008 122.139 547.638 122.244C546.696 122.541 545.917 122.848 545.303 123.167L544.805 123.923ZM550.588 121.019C550.621 121.021 550.788 120.983 551.09 120.906C550.889 120.957 550.721 120.995 550.588 121.019ZM572.738 130.418C574.624 130.747 576.026 130.944 576.943 131.008C577.893 131.074 579.327 131.043 581.246 130.914C581.822 131.152 582.148 131.421 582.226 131.723C582.304 132.025 582.315 132.338 582.259 132.663C582.206 132.956 582.201 133.252 582.246 133.551C582.291 133.851 582.585 134.118 583.128 134.354C583.416 134.473 583.478 134.773 583.312 135.255C583.182 135.707 582.884 136.197 582.42 136.724C581.24 138.057 579.894 138.95 578.381 139.404C575.981 139.829 574.106 140.043 572.756 140.048C570.517 140.056 568.099 139.805 565.501 139.294C562.655 138.568 561.346 137.275 561.575 135.415C562.056 128.536 564.046 121.729 567.545 114.995C568.686 112.803 569.966 110.506 571.384 108.103C571.683 107.598 571.872 107.018 571.95 106.365C572.062 105.715 572.155 105.079 572.232 104.459C572.308 103.839 572.445 103.289 572.643 102.809C572.841 102.329 573.209 102.009 573.747 101.85C580.751 99.6068 586.213 98.9352 590.133 99.8347C591.507 99.9636 592.375 100.502 592.736 101.449C593.133 102.365 593.112 103.368 592.674 104.456C592.269 105.547 591.524 106.548 590.44 107.46C589.388 108.374 588.101 108.893 586.578 109.017C584.607 109.439 583.401 109.733 582.961 109.9C582.115 110.236 581.489 110.719 581.082 111.349C580.573 112.038 580.1 112.696 579.661 113.323C579.222 113.951 578.894 114.636 578.678 115.378L578.406 116.445C579.007 116.784 579.754 116.934 580.645 116.898C581.572 116.831 582.415 116.775 583.175 116.729C583.971 116.653 584.594 116.68 585.046 116.811C585.53 116.943 585.594 117.441 585.238 118.305C584.916 119.139 584.341 120.07 583.512 121.098C582.716 122.129 581.629 122.843 580.251 123.24C579.388 123.344 578.789 123.434 578.455 123.51C578.155 123.555 577.923 123.588 577.757 123.609C577.525 123.626 576.866 123.629 575.781 123.619C574.058 126.132 572.982 128.098 572.554 129.516C572.382 130.097 572.443 130.397 572.738 130.418ZM628.218 129.951C626.839 130.842 625.413 131.466 623.94 131.824C622.501 132.152 621.085 132.168 619.69 131.873C618.295 131.578 617.125 130.887 616.181 129.8C615.06 132.652 614.236 135.491 613.709 138.318C613.541 138.833 613.279 139.292 612.922 139.695C612.211 141.39 610.835 142.462 608.796 142.912C606.791 143.332 604.964 143.105 603.313 142.233C602.552 141.818 601.934 141.248 601.458 140.523C600.981 139.799 600.778 138.945 600.846 137.962C603.654 130.291 606.281 124.023 608.728 119.157C609.26 118.141 609.68 117.314 609.988 116.678C610.328 116.043 610.629 115.504 610.891 115.062C611.152 114.619 611.376 114.24 611.563 113.924C611.785 113.577 612.041 113.2 612.333 112.793C612.991 111.851 613.743 110.751 614.588 109.494C615.468 108.206 616.193 107.252 616.763 106.634C617.366 106.018 617.978 105.501 618.6 105.083C619.257 104.635 619.96 104.224 620.711 103.848C621.494 103.475 622.466 102.983 623.628 102.373C624.79 101.763 625.998 101.436 627.252 101.392C628.541 101.318 629.746 101.501 630.867 101.941C633.239 102.864 634.906 104.676 635.87 107.377C636.683 109.87 636.619 113.14 635.678 117.189C634.225 123.375 631.738 127.629 628.218 129.951ZM618.254 124.86C620.982 124.458 622.972 122.836 624.224 119.993C625.28 117.598 625.655 114.826 625.348 111.678C624.505 112.903 623.725 114.181 623.006 115.514C622.32 116.848 621.694 118.039 621.127 119.086C619.876 121.434 618.919 123.359 618.254 124.86ZM644.324 108.955C646.552 106.741 648.948 105.427 651.512 105.014C653.278 104.709 654.911 104.889 656.412 105.554C657.713 104.361 659.318 104.012 661.225 104.508C662.971 104.959 664.408 106.063 665.536 107.821C665.586 108.055 665.693 108.408 665.857 108.88C666.055 109.355 666.232 109.878 666.39 110.448C667.598 113.89 667.405 118.288 665.813 123.641C663.835 130.284 660.765 135.814 656.605 140.23C655.325 141.589 653.915 142.692 652.374 143.539C649.89 145.176 647.017 145.781 643.754 145.356C641.73 145.116 640.062 144.489 638.751 143.475C633.47 140.374 632.081 134.582 634.583 126.1C636.65 119.134 639.897 113.419 644.324 108.955ZM643.09 135.088L643.02 135.38L643.08 135.927C643.206 136.956 643.479 137.765 643.898 138.354C644.32 138.911 644.674 139.265 644.96 139.416C645.306 139.177 645.65 138.954 645.994 138.748C646.338 138.541 646.652 138.284 646.937 137.974C649.357 135.378 651.345 131.896 652.901 127.528C654.457 123.16 655.204 119.064 655.142 115.242C653.75 116.79 652.275 118.58 650.718 120.611C649.161 122.642 647.92 124.382 646.995 125.832C644.883 129.206 643.581 132.292 643.09 135.088ZM695.416 125.167C695.186 126.566 694.823 127.989 694.327 129.436C693.864 130.885 693.223 132.289 692.404 133.647C691.617 135.007 690.687 136.308 689.612 137.55C688.571 138.794 687.422 139.932 686.164 140.963C684.907 141.994 683.581 142.84 682.185 143.499C679.183 145.001 676.356 145.413 673.705 144.734C673.026 145.97 672.085 146.711 670.883 146.956C669.711 147.236 668.565 147.156 667.443 146.715C666.352 146.31 665.414 145.603 664.629 144.593C663.844 143.583 663.508 142.26 663.623 140.622C663.74 138.951 663.973 137.256 664.324 135.536C664.675 133.815 665.103 132.167 665.608 130.589C666.416 127.979 667.36 125.543 668.439 123.281C670.97 118.158 672.457 114.543 672.901 112.434C673.526 109.614 674.436 107.9 675.63 107.292C677.608 106.311 679.443 105.962 681.135 106.245C682.827 106.528 684.338 107.045 685.668 107.796C687.853 109.035 690.166 111.024 692.608 113.762C695.296 116.748 696.232 120.55 695.416 125.167ZM675.074 138.558C676.805 137.823 678.208 137.049 679.286 136.236C680.398 135.392 681.439 134.625 682.409 133.936C683.916 132.626 685.065 131.027 685.855 129.14C687.594 124.982 686.902 121.692 683.78 119.268C683.314 118.873 682.611 118.33 681.672 117.639C681.14 118.655 680.719 119.729 680.41 120.859C680.133 121.992 679.777 123.086 679.341 124.142L677.712 128.374L676.305 132.966C676.193 133.617 676.05 134.248 675.876 134.862C675.704 135.442 675.546 136.057 675.401 136.705L675.074 138.558ZM715.74 113.256C714.344 116.746 713.054 119.898 711.869 122.712C710.718 125.529 709.648 128.12 708.66 130.487C707.704 132.856 706.81 135.049 705.978 137.065C705.148 139.047 704.373 140.952 703.653 142.778C703.174 144.917 702.003 146.366 700.14 147.124C699.057 147.543 697.795 147.701 696.354 147.601C694.912 147.5 693.843 147.26 693.145 146.882C692.445 146.537 692.017 146.063 691.862 145.46C691.674 144.854 691.723 144.15 692.009 143.347C692.266 142.509 692.706 141.387 693.331 139.983C693.958 138.545 694.752 136.609 695.712 134.174C696.705 131.742 697.733 129.279 698.796 126.786C701.437 120.551 703.483 116.25 704.932 113.883C705.487 113 706.021 112.428 706.533 112.168C707.047 111.874 707.538 111.678 708.006 111.579C708.476 111.448 708.915 111.297 709.322 111.128C709.728 110.959 710.107 110.492 710.456 109.726C710.839 108.963 711.45 108.462 712.29 108.225C713.162 107.99 713.949 108.028 714.652 108.341C715.389 108.623 715.909 109.186 716.212 110.03C716.551 110.843 716.393 111.919 715.74 113.256ZM730.017 111.883L730.01 111.982C730.007 112.014 730.006 112.031 730.006 112.031C730.039 112.033 730.054 112.051 730.052 112.083L730.045 112.182L730.094 112.185L730.334 112.992C730.595 113.965 729.537 116.854 727.161 121.658C724.63 126.781 723.344 130.822 723.301 133.782C723.515 135.904 725.386 134.339 728.913 129.088C731.7 125.004 734.434 120.504 737.115 115.589C737.458 114.922 737.818 114.239 738.196 113.541C738.576 112.811 739.029 112.217 739.555 111.76C740.718 110.656 742.051 110.437 743.551 111.101C744.119 110.515 744.755 110.132 745.459 109.951C746.195 109.772 746.87 109.77 747.484 109.944C748.13 110.121 748.665 110.471 749.089 110.995C749.516 111.485 749.718 112.125 749.696 112.913C749.748 113.575 749.295 115.107 748.337 117.509C747.412 119.913 746.551 122.108 745.754 124.093C744.957 126.079 744.131 128.243 743.276 130.586C741.209 136.136 739.509 141.383 738.176 146.327C738.07 147.373 737.551 148.209 736.618 148.835C735.718 149.463 734.721 149.838 733.626 149.959C732.562 150.115 731.565 150.012 730.636 149.651C729.512 149.243 728.963 148.382 728.989 147.067C729.014 146.707 729.023 146.345 729.016 145.983C729.003 147.101 728.134 147.995 726.409 148.664C725.934 148.862 725.493 149.045 725.087 149.214C722.745 149.741 720.348 149.426 717.894 148.267C716.749 147.693 715.73 146.963 714.838 146.078C713.98 145.162 713.411 144.118 713.131 142.947C712.241 139.198 712.79 134.397 714.779 128.545C715.613 126.036 716.59 123.602 717.709 121.244C718.829 118.887 719.639 117.182 720.14 116.131C720.675 115.082 721.054 114.368 721.278 113.988C721.504 113.576 721.746 113.182 722.002 112.805C722.637 111.73 723.165 111.009 723.585 110.644L724.213 110.145C724.283 110.084 724.351 110.055 724.416 110.06C724.484 110.032 724.569 109.988 724.672 109.93C724.946 109.784 725.232 109.689 725.532 109.644L726.23 109.545L726.525 109.565C727.484 109.501 728.289 109.755 728.94 110.327C728.938 110.36 728.97 110.378 729.035 110.383L729.404 110.754L729.541 110.912L729.675 111.119C729.673 111.152 729.672 111.168 729.672 111.168C729.704 111.17 729.719 111.188 729.717 111.221L729.763 111.273L729.756 111.371C729.789 111.374 729.804 111.391 729.802 111.424L729.798 111.473C729.829 111.508 729.86 111.527 729.893 111.529L729.89 111.578C729.887 111.611 729.886 111.627 729.886 111.627C729.919 111.63 729.934 111.647 729.932 111.68C729.932 111.68 729.947 111.698 729.978 111.733L729.974 111.782C729.972 111.814 729.986 111.848 730.017 111.883ZM729.056 144.702L729.066 144.554C729.031 144.585 729.006 144.715 728.99 144.944C728.996 144.846 729.017 144.781 729.052 144.751L729.056 144.702ZM766.132 114.111C766.398 115.019 766.537 115.621 766.549 115.918C766.571 116.545 766.305 117.053 765.751 117.443C765.749 117.475 765.713 117.522 765.642 117.583C765.83 119.143 765.794 120.589 765.537 121.921C765.279 123.253 764.976 124.532 764.627 125.758C766.606 122.868 768.169 120.755 769.316 119.42C771.682 116.656 773.842 114.716 775.796 113.602C776.444 113.285 777.216 113.076 778.112 112.974C779.042 112.841 779.913 112.869 780.723 113.057C781.532 113.246 782.181 113.62 782.669 114.181C783.189 114.744 783.38 115.547 783.241 116.591C781.877 122.915 780.478 128.808 779.042 134.271C777.609 139.701 775.882 144.864 773.862 149.759L773.855 149.857L773.805 149.854C773.33 151.006 772.289 151.772 770.682 152.154C769.11 152.505 767.732 152.441 766.548 151.964C765.103 151.435 764.487 150.602 764.698 149.464L764.826 148.338L764.833 148.239C765.019 147.462 765.121 146.943 765.139 146.681C765.193 146.388 765.24 146.177 765.282 146.049C765.407 145.202 765.593 144.425 765.84 143.718C766.122 142.98 766.328 142.386 766.459 141.934C766.589 141.482 766.717 141.063 766.843 140.677C766.971 140.258 767.059 139.935 767.108 139.708C765.744 141.324 764.788 142.294 764.238 142.618C762.864 143.444 761.311 143.763 759.579 143.576C758.503 143.435 757.898 143.146 757.763 142.709C757.5 141.769 757.308 141.212 757.189 141.039C757.011 140.763 756.878 140.31 756.79 139.678C755.675 143.386 754.653 145.997 753.724 147.512C753.353 148.112 752.987 148.646 752.625 149.114C752.091 150.163 750.99 150.843 749.322 151.155C747.753 151.473 746.281 151.337 744.907 150.747C743.497 150.188 742.867 149.321 743.015 148.146C743.163 146.971 743.511 145.515 744.061 143.775C744.58 142.001 745.188 140.134 745.884 138.175C747.997 131.969 749.463 127.941 750.284 126.089C751.138 124.239 751.848 122.791 752.415 121.744C753.77 119.304 754.947 117.543 755.944 116.461C757.104 114.468 758.878 113.341 761.266 113.08C763.159 112.85 764.781 113.194 766.132 114.111ZM811.574 140.693C810.511 143.186 809.438 145.58 808.356 147.874C807.274 150.169 806.38 151.9 805.673 153.069C804.996 154.273 804.412 155.088 803.922 155.514C803.431 155.941 802.934 156.219 802.431 156.348C801.961 156.48 801.482 156.512 800.993 156.445C800.536 156.38 800.064 156.314 799.574 156.247C796.853 155.629 796.139 153.588 797.435 150.123C798.32 147.354 799.037 145.1 799.586 143.361C800.138 141.589 800.585 140.139 800.927 139.01C801.305 137.852 801.618 136.902 801.867 136.163C802.119 135.39 802.385 134.635 802.667 133.898C802.949 133.161 803.287 132.328 803.681 131.401C804.108 130.476 804.655 129.247 805.322 127.714C804.065 127.791 802.961 127.582 802.008 127.087C800.61 126.364 800.114 124.98 800.52 122.934C800.718 121.993 801.287 121.144 802.229 120.387C802.717 119.993 803.29 119.573 803.947 119.125C805.295 118.199 807.91 117.295 811.79 116.414C815.803 115.509 819.216 115.188 822.029 115.451C822.791 115.372 823.554 115.525 824.318 115.907C825.116 116.259 825.743 116.714 826.197 117.273C826.652 117.831 826.858 118.422 826.814 119.044C826.803 119.669 826.371 120.198 825.518 120.632C825.107 120.867 824.797 121.29 824.59 121.901C824.385 122.479 824.16 123.105 823.916 123.779C823.673 124.421 823.336 125.006 822.904 125.536C822.505 126.067 821.892 126.354 821.066 126.395C820.625 126.594 820.007 126.716 819.214 126.759C818.454 126.805 817.94 126.851 817.674 126.898C817.442 126.915 817.305 126.988 817.263 127.116C816.552 128.811 815.7 130.875 814.707 133.308C813.717 135.707 812.672 138.169 811.574 140.693ZM805.851 127.208C805.785 127.203 805.751 127.217 805.749 127.25C805.749 127.25 805.782 127.252 805.847 127.257L805.851 127.208ZM830.508 121.969C832.737 119.754 835.133 118.441 837.697 118.027C839.463 117.723 841.096 117.903 842.597 118.567C843.898 117.374 845.502 117.026 847.41 117.521C849.156 117.972 850.593 119.077 851.721 120.835C851.771 121.068 851.878 121.422 852.042 121.894C852.239 122.369 852.417 122.891 852.574 123.462C853.782 126.904 853.59 131.302 851.998 136.655C850.019 143.298 846.95 148.827 842.79 153.244C841.51 154.603 840.1 155.706 838.559 156.553C836.074 158.189 833.201 158.795 829.939 158.37C827.915 158.129 826.247 157.503 824.935 156.489C819.655 153.388 818.265 147.596 820.768 139.113C822.835 132.147 826.082 126.433 830.508 121.969ZM829.274 148.102L829.204 148.393L829.265 148.941C829.391 149.97 829.663 150.779 830.083 151.368C830.505 151.924 830.859 152.278 831.144 152.43C831.49 152.191 831.835 151.968 832.179 151.761C832.522 151.555 832.836 151.297 833.121 150.988C835.541 148.392 837.529 144.91 839.086 140.542C840.642 136.174 841.389 132.078 841.327 128.255C839.935 129.804 838.46 131.594 836.903 133.624C835.345 135.655 834.104 137.396 833.18 138.845C831.068 142.22 829.766 145.305 829.274 148.102ZM893.484 121.828L893.677 121.891C894.462 122.439 895.127 123.046 895.673 123.709C896.255 124.342 896.767 125.02 897.21 125.742C897.688 126.434 898.047 127.183 898.287 127.99C899.322 131.091 898.005 134.389 894.337 137.886C892.786 139.357 891.07 140.587 889.191 141.575C889.626 141.935 890.035 142.21 890.417 142.401C890.833 142.562 891.403 142.882 892.127 143.36C892.853 143.806 893.291 144.61 893.44 145.773C893.591 146.903 893.438 148.159 892.979 149.543C892.553 150.928 891.829 152.343 890.806 153.785C889.818 155.198 888.563 156.443 887.039 157.522C883.573 160.012 879.693 160.893 875.399 160.165C874.776 160.121 874.387 160.044 874.23 159.935C874.073 159.825 873.947 159.734 873.854 159.662C873.76 159.589 873.551 159.525 873.225 159.469C872.361 160.067 871.398 160.412 870.339 160.502C869.279 160.593 868.285 160.441 867.358 160.047C866.464 159.655 865.717 159.043 865.117 158.211C864.549 157.382 864.31 156.328 864.399 155.05C864.557 154.206 864.768 153.546 865.032 153.07C864.954 152.769 864.93 152.405 864.96 151.979C866.488 146.127 867.853 141.664 869.056 138.588C871.491 132.47 873.983 127.904 876.531 124.889C878.619 122.336 881.377 120.784 884.806 120.234C888.102 119.707 890.995 120.238 893.484 121.828ZM875.805 155.058C876.205 154.987 876.534 154.993 876.791 155.077C877.084 155.131 877.429 155.138 877.827 155.1C878.783 155.068 880.102 154.568 881.783 153.599C882.869 152.655 883.48 151.693 883.614 150.715C883.748 149.737 883.644 149.104 883.302 148.817C882.962 148.497 882.481 148.315 881.859 148.272C881.269 148.23 880.591 148.282 879.824 148.426C879.092 148.539 878.38 148.588 877.69 148.573L877.683 148.671C877.474 149.315 877.27 149.877 877.072 150.357C876.874 150.837 876.693 151.301 876.53 151.751C876.16 152.811 875.852 153.909 875.608 155.044L875.805 155.058ZM886.731 130.145C885.757 129.945 884.639 130.641 883.375 132.231C882.581 133.229 881.913 134.779 881.371 136.881C882.08 136.634 882.769 136.435 883.438 136.285C884.141 136.103 884.797 135.902 885.405 135.681C886.89 135.16 887.975 134.478 888.659 133.638C889.439 132.836 889.719 132.132 889.498 131.524C889.142 130.972 888.536 130.452 887.681 129.965C887.403 130.176 887.086 130.236 886.731 130.145ZM886.007 129.897L886.155 129.907L886.007 129.897ZM905.231 153.658C907.117 153.987 908.519 154.184 909.436 154.248C910.386 154.315 911.821 154.283 913.739 154.154C914.315 154.392 914.642 154.661 914.719 154.963C914.797 155.265 914.808 155.578 914.752 155.904C914.699 156.196 914.695 156.492 914.74 156.792C914.784 157.091 915.078 157.358 915.622 157.594C915.91 157.713 915.971 158.013 915.805 158.495C915.675 158.947 915.378 159.437 914.913 159.964C913.733 161.297 912.387 162.19 910.874 162.644C908.474 163.069 906.599 163.284 905.249 163.288C903.01 163.296 900.592 163.045 897.994 162.534C895.148 161.808 893.839 160.515 894.068 158.655C894.549 151.776 896.539 144.969 900.038 138.235C901.179 136.043 902.459 133.746 903.878 131.344C904.176 130.838 904.365 130.258 904.443 129.606C904.555 128.955 904.649 128.32 904.725 127.699C904.801 127.079 904.938 126.529 905.136 126.049C905.335 125.569 905.703 125.25 906.24 125.09C913.244 122.847 918.706 122.175 922.626 123.075C924 123.204 924.868 123.742 925.229 124.689C925.626 125.605 925.606 126.608 925.167 127.696C924.762 128.787 924.017 129.789 922.933 130.7C921.881 131.614 920.594 132.133 919.071 132.257C917.1 132.679 915.894 132.974 915.454 133.14C914.608 133.476 913.982 133.959 913.576 134.589C913.067 135.278 912.593 135.936 912.154 136.564C911.715 137.191 911.387 137.876 911.171 138.618L910.899 139.685C911.5 140.024 912.247 140.175 913.138 140.138C914.065 140.071 914.908 140.015 915.668 139.969C916.464 139.893 917.087 139.92 917.539 140.051C918.024 140.183 918.088 140.682 917.731 141.545C917.409 142.379 916.834 143.31 916.005 144.338C915.209 145.369 914.122 146.083 912.744 146.48C911.881 146.585 911.282 146.674 910.948 146.75C910.649 146.795 910.416 146.828 910.25 146.849C910.018 146.866 909.36 146.869 908.274 146.859C906.551 149.372 905.476 151.338 905.047 152.756C904.875 153.337 904.936 153.637 905.231 153.658ZM941.562 125.139C946.346 124.519 949.974 125.365 952.445 127.677C953.619 128.78 954.335 130.311 954.593 132.271C954.884 134.234 954.52 136.381 953.501 138.713C953.063 139.801 952.382 140.593 951.459 141.088C950.535 141.583 949.595 141.847 948.638 141.879C947.716 141.88 946.889 141.707 946.156 141.36C945.426 140.979 945.048 140.492 945.024 139.898L944.65 138.884C943.947 137.65 942.598 137.408 940.603 138.157C938.88 138.794 937.117 139.987 935.316 141.738C933.408 143.612 932.135 145.334 931.499 146.902C930.786 148.63 930.409 149.772 930.37 150.329C930.218 151.57 930.582 152.714 931.464 153.763C932.778 154.744 934.125 155.25 935.505 155.28C936.888 155.278 938.138 155.053 939.256 154.604C940.376 154.123 941.304 153.562 942.04 152.923C942.776 152.283 943.154 151.815 943.175 151.521C943.287 151.331 943.399 151.141 943.511 150.951C943.623 150.762 943.718 150.571 943.798 150.379C943.667 150.37 943.699 150.372 943.896 150.386C944.095 150.367 944.144 150.37 944.043 150.396C943.945 150.389 943.993 150.409 944.187 150.456L944.475 150.575C942.769 151.904 941.193 152.09 939.745 151.133C939.181 150.731 938.683 150.318 938.252 149.893C937.823 149.435 937.411 149.208 937.016 149.214C936.322 148.77 936.212 147.989 936.686 146.87C936.882 146.423 937.206 146.017 937.659 145.654C938.148 145.26 938.742 145.006 939.441 144.89C942.815 143.71 945.868 143.594 948.6 144.543C949.822 144.957 950.627 145.688 951.015 146.736C951.437 147.753 951.572 148.882 951.42 150.122C951.267 151.362 950.901 152.604 950.32 153.847C949.772 155.092 949.192 156.089 948.58 156.836C947.971 157.551 947.122 158.397 946.033 159.374C944.977 160.353 943.661 161.282 942.085 162.159C938.217 164.292 934.173 165.161 929.954 164.768C923.835 164.241 920.39 161.482 919.62 156.491C919.369 154.893 919.329 153.113 919.499 151.15C920.225 145.472 922.301 140.268 925.726 135.537C927.365 133.282 929.509 131.094 932.159 128.975C933.83 127.676 935.675 126.719 937.693 126.103C938.771 125.75 940.061 125.429 941.562 125.139ZM973.951 131.304C972.555 134.794 971.265 137.947 970.081 140.761C968.929 143.577 967.859 146.168 966.871 148.535C965.915 150.904 965.021 153.097 964.189 155.113C963.359 157.096 962.584 159 961.864 160.826C961.385 162.965 960.214 164.414 958.351 165.173C957.268 165.591 956.006 165.749 954.565 165.649C953.123 165.548 952.054 165.308 951.356 164.931C950.656 164.585 950.228 164.111 950.073 163.508C949.885 162.902 949.934 162.198 950.221 161.395C950.477 160.557 950.917 159.435 951.542 158.031C952.169 156.593 952.963 154.657 953.923 152.222C954.916 149.79 955.944 147.327 957.007 144.834C959.648 138.599 961.694 134.298 963.143 131.931C963.699 131.048 964.232 130.476 964.744 130.216C965.259 129.923 965.75 129.726 966.217 129.627C966.687 129.496 967.126 129.345 967.533 129.176C967.94 129.007 968.318 128.54 968.668 127.774C969.05 127.011 969.661 126.511 970.501 126.273C971.373 126.038 972.16 126.076 972.863 126.389C973.6 126.671 974.12 127.234 974.424 128.078C974.762 128.892 974.604 129.967 973.951 131.304ZM973.561 145.497C974.369 143.348 975.012 141.698 975.487 140.546C975.998 139.364 976.483 138.311 976.942 137.389C977.402 136.466 977.908 135.58 978.461 134.73C979.047 133.882 979.66 133.118 980.3 132.439C980.975 131.729 981.672 131.185 982.389 130.807C983.107 130.429 983.843 130.267 984.596 130.32C985.349 130.372 986.115 130.722 986.893 131.369C987.974 134.736 988.623 136.987 988.84 138.122C989.119 139.787 989.318 142.122 989.437 145.126C989.785 144.393 990.167 143.629 990.585 142.836C991.037 142.011 991.474 141.186 991.893 140.359C993.06 138.268 993.813 136.675 994.153 135.58C995.034 133.337 996.645 131.721 998.985 130.733C1001.02 129.887 1002.88 129.704 1004.55 130.184C1005.23 130.363 1005.69 130.675 1005.92 131.119C1006.19 131.565 1006.15 132.007 1005.83 132.445C1005.53 132.886 1005.4 133.321 1005.44 133.752C1005.51 134.152 1005.56 134.632 1005.59 135.194C1005.58 136.707 1005.22 138.032 1004.52 139.168C1003.82 140.271 1003.08 141.668 1002.3 143.358C1001.53 145.016 1000.73 146.787 999.904 148.672C999.114 150.559 998.305 152.477 997.477 154.427C996.65 156.377 995.851 158.149 995.081 159.741C993.377 163.407 992.052 165.405 991.107 165.734C989.81 166.4 988.862 166.778 988.263 166.868C987.5 166.947 986.436 166.872 985.069 166.645C984.222 166.52 983.562 165.371 983.088 163.198C982.808 162.027 982.591 160.415 982.438 158.363C982.162 154.789 981.937 152.814 981.766 152.44C980.158 156.607 979.037 159.228 978.402 160.303C977.8 161.38 977.339 162.089 977.019 162.428C976.732 162.77 976.371 163.223 975.937 163.785C975.428 164.934 974.352 165.731 972.708 166.176C971.296 166.604 970.045 166.599 968.956 166.161C967.772 165.683 967.464 164.904 968.033 163.825C968.669 159.919 970.511 153.81 973.561 145.497ZM1025.46 132.682C1025.56 133.084 1025.69 133.373 1025.84 133.548C1026 133.691 1026.1 133.797 1026.17 133.867C1026.32 134.042 1026.21 134.331 1025.86 134.734C1025.52 135.303 1025.06 135.963 1024.48 136.712C1023.44 138.054 1022.76 139.044 1022.45 139.681C1020.92 142.273 1019.7 144.673 1018.79 146.881C1017.88 149.056 1017.1 151.026 1016.45 152.791C1015.8 154.556 1015.18 156.109 1014.59 157.451C1013.89 159.014 1013.12 160.162 1012.28 160.893C1011.84 161.521 1011.1 161.914 1010.07 162.072C1009.04 162.231 1008 162.208 1006.97 162.003C1005.93 161.766 1005.05 161.359 1004.34 160.783C1003.65 160.208 1003.44 159.502 1003.69 158.664C1004.27 155.61 1004.99 153.06 1005.86 151.013C1006.76 148.97 1007.52 147.278 1008.14 145.939C1008.79 144.602 1009.35 143.407 1009.82 142.353C1010.29 141.267 1010.72 140.342 1011.1 139.579C1011.52 138.785 1011.99 137.962 1012.51 137.109C1013.03 136.224 1013.59 135.341 1014.17 134.461C1014.8 133.55 1015.42 132.721 1016.03 131.973C1017.43 130.261 1018.59 129.272 1019.49 129.006C1020.4 128.708 1021.3 128.556 1022.19 128.553C1023.11 128.551 1023.89 128.705 1024.53 129.012C1025.2 129.323 1025.64 129.782 1025.86 130.39C1026.09 130.998 1025.95 131.762 1025.46 132.682ZM1011.12 168.911C1010.67 170.229 1009.85 171.175 1008.65 171.75C1007.49 172.36 1006.27 172.637 1004.99 172.58C1003.71 172.557 1002.53 172.227 1001.46 171.593C1000.41 170.993 999.799 170.111 999.617 168.946C999.4 167.811 999.63 166.873 1000.31 166.13C1001.02 165.357 1001.83 164.887 1002.73 164.719C1003.63 164.519 1004.67 164.411 1005.86 164.395C1007.08 164.381 1008.17 164.524 1009.14 164.822C1010.11 165.12 1010.83 165.598 1011.31 166.257C1011.79 166.916 1011.73 167.801 1011.12 168.911Z" fill="black" style="fill:black;fill-opacity:1;"/>
<defs>
<filter id="filter0_d_173_1721" x="-133.973" y="11.8829" width="1350.46" height="213.435" filterUnits="userSpaceOnUse" color-interpolation-filters="sRGB">
<feFlood flood-opacity="0" result="BackgroundImageFix"/>
<feColorMatrix in="SourceAlpha" type="matrix" values="0 0 0 0 0 0 0 0 0 0 0 0 0 0 0 0 0 0 127 0" result="hardAlpha"/>
<feOffset dy="3.84662"/>
<feGaussianBlur stdDeviation="2.11564"/>
<feComposite in2="hardAlpha" operator="out"/>
<feColorMatrix type="matrix" values="0 0 0 0 0 0 0 0 0 0 0 0 0 0 0 0 0 0 0.25 0"/>
<feBlend mode="normal" in2="BackgroundImageFix" result="effect1_dropShadow_173_1721"/>
<feBlend mode="normal" in="SourceGraphic" in2="effect1_dropShadow_173_1721" result="shape"/>
</filter>
</defs>
</svg>
